<svg width="163" height="16" viewBox="0 0 163 16" fill="none" xmlns="http://www.w3.org/2000/svg">
<path d="M154.929 0.928955C155.319 0.53853 155.952 0.538728 156.343 0.928955L162.707 7.29321C163.097 7.68375 163.098 8.31679 162.707 8.70728L156.343 15.0715C155.952 15.4616 155.319 15.4618 154.929 15.0715C154.538 14.6811 154.539 14.048 154.929 13.6575L159.586 9.00024H9.89941C9.43602 11.2823 7.41884 13.0002 5 13.0002C2.23865 13.0002 0.000120989 10.7616 0 8.00024C0 5.23882 2.23858 3.00024 5 3.00024C7.41899 3.00024 9.43618 4.71795 9.89941 7.00024H159.586L154.929 2.34302C154.539 1.95251 154.538 1.31939 154.929 0.928955Z" fill="#D69C0A"/>
</svg>
